<?xml version="1.0" encoding="utf-8"?>
<!-- Svg Vector Icons : http://www.onlinewebfonts.com/icon -->
<!DOCTYPE svg PUBLIC "-//W3C//DTD SVG 1.1//EN" "http://www.w3.org/Graphics/SVG/1.1/DTD/svg11.dtd">
<svg version="1.1" xmlns="http://www.w3.org/2000/svg" xmlns:xlink="http://www.w3.org/1999/xlink" x="0px" y="0px" viewBox="0 0 1000 1000" enable-background="new 0 0 1000 1000" xml:space="preserve">
<metadata> Svg Vector Icons : http://www.onlinewebfonts.com/icon </metadata>
<g><g><path d="M844.2,448c-9.7,0-19.2,0.9-28.5,2.8c-10.2-48.7-35.3-93.2-72.3-127.3c-44.3-40.8-102-63.3-162.3-63.3c-29.4,0-59.5,5.6-86.8,16.2c-11.9,4.6-17.8,18-13.2,29.9c4.6,11.9,18,17.8,29.9,13.2c22.1-8.6,46.4-13.1,70.1-13.1c100.9,0,183.7,75.8,192.6,176.3c0.7,7.4,4.8,14,11.1,17.8c6.3,3.8,14.1,4.4,20.9,1.5c12.2-5.1,25.1-7.7,38.5-7.7c54.9,0,99.6,44.7,99.6,99.6c0,54.9-44.7,99.6-99.6,99.6c-3.1,0-329-0.1-339.8-0.2c-11.9-0.3-22.1,8.6-23.4,20.6c-1.4,12.7,7.7,24.2,20.4,25.6c3,0.3,339.4,0.3,342.8,0.3c80.4,0,145.9-65.4,145.9-145.9C990,513.5,924.6,448,844.2,448z"/><path d="M33.1,485C20.4,485,10,495.4,10,508.2v185.3c0,12.8,10.4,23.1,23.1,23.1c12.8,0,23.1-10.4,23.1-23.1V508.2C56.3,495.4,45.9,485,33.1,485z"/><path d="M151.7,448.4c-12.8,0-23.1,10.4-23.1,23.1v219.3c0,12.8,10.4,23.1,23.1,23.1s23.1-10.4,23.1-23.1V471.5C174.9,458.7,164.5,448.4,151.7,448.4z"/><path d="M273.2,350.1c-12.8,0-23.1,10.4-23.1,23.1v342.6c0,12.8,10.4,23.1,23.1,23.1c12.8,0,23.1-10.4,23.1-23.1V373.3C296.3,360.5,285.9,350.1,273.2,350.1z"/><path d="M397.5,354.1c-12.8,0-23.1,10.4-23.1,23.1v339c0,12.8,10.4,23.1,23.1,23.1c12.8,0,23.1-10.4,23.1-23.1v-339C420.6,364.4,410.3,354.1,397.5,354.1z"/></g><g></g><g></g><g></g><g></g><g></g><g></g><g></g><g></g><g></g><g></g><g></g><g></g><g></g><g></g><g></g></g>
</svg>